# xmcd CD database file
#
# Track frame offsets:
#	150
#	16550
#	35012
#	54130
#	71177
#	91435
#	109897
#	128505
#	145905
#	163759
#	181440
#	202957
#	233407
#	258915
#	288912
#
# Disc length: 3987 seconds
#
# Revision: 1
# Processed by: cddbd v1.5.1PL0 Copyright (c) Steve Scherf et al.
# Submitted via: CDex 1.51
#
DISCID=c60f910f
DTITLE=O-ZONE - DiscO-Zone　〜恋のマイアヒ〜
DYEAR=2005
DGENRE=Disco
TTITLE0=DRAGOSTEA DIN TEI
TTITLE1=FIESTA DE LA NOCHE
TTITLE2=DE CE PLANG CHITAREFE
TTITLE3=PRINTRE NORI
TTITLE4=ORIUNDE AI FI
TTITLE5=NUMAI TU
TTITLE6=DAR,UNDE ESTI
TTITLE7=DESPRE TINE
TTITLE8=SARBATOAREA NOPTILOR DE VARA
TTITLE9=NU MA LAS DE LIMBA NOASTRA...
TTITLE10=CREDE-MA
TTITLE11=DRAGOSTEA DIN TEI(OVERHEAD CHAMPION MIX)
TTITLE12=DRAGOSTEA DIN TEI(DJ KAYA&DJ KOUSUKE REMIX)
TTITLE13=DRAGOSTEA DIN TEI EUROBEAT REMIX
TTITLE14=MA-I-A-HI FLASH
EXTD=YEAR: 2005
EXTT0=
EXTT1=
EXTT2=
EXTT3=
EXTT4=
EXTT5=
EXTT6=
EXTT7=
EXTT8=
EXTT9=
EXTT10=
EXTT11=
EXTT12=
EXTT13=
EXTT14=
PLAYORDER=
